<svg xmlns="http://www.w3.org/2000/svg" id="Layer_1" x="0" y="0" enable-background="new 0 0 600 500" version="1.1" xml:space="preserve" viewBox="115.2 88.3 441.02 351.7"><g id="Software_Developer"><path fill="#d2e4ff" d="M541.3,440.3c1.2-4.7,1-10.1-0.5-14.6c-3.2-9.9-10.2-18-13.4-27.9c-8.3-25.5,10.1-51.1,19.1-76.4        c8.9-25.3,8.2-54.2-1.9-78.9c-10.2-24.7-29.7-45-53.2-55.3c-14.2-6.2-31.6-10.6-37.5-25.6c-10.4-26.3,25.9-54.9,15.1-81        c-4-9.6-13.7-15.4-23.4-16.9c-9.8-1.5-19.7,0.7-29.2,3.3C383.6,76,352.3,90,319.5,98.4c-32.8,8.4-68.3,11-99.4-2.9        c-24.8-11-46.2-32.1-73-35.5c-23.1-2.9-47.2,9.4-59.5,30.2c-12.3,20.9-12.1,49.3,0.5,69.9c5.3,8.7,12.6,16.1,17.3,25.2        c14.3,27.9,0.8,62.6-16.6,88.4c-17.5,25.8-39.6,50.3-44.3,81.6c-5.4,36.7,15.5,74.7,53,84.9H541.3z" opacity=".3" style="&#10;    display: none;&#10;"/><path fill="#060405" d="M172.7,371.8c-4.7,0-9.4-0.3-13.8-0.7l0.1-2c10.4,0.8,22.2,1.7,32.5-2.2c9.6-3.6,18.8-13,17.8-23.9       c-0.5-6.1-4.2-12-5.7-18.2c-1.8-7.6-0.1-16,4.5-22.3c4.6-6.3,12-10.6,19.8-11.3l0.2,2c-7.2,0.7-14.1,4.6-18.3,10.5       c-4.2,5.9-5.8,13.6-4.2,20.7c1.4,6.3,5.1,11.8,5.7,18.4c1.1,12-8.8,22.1-19.1,26C185.9,371.2,179.2,371.8,172.7,371.8z" style="&#10;    display: none;&#10;"/><path fill="#fece16" d="M349.2,98.3v187.4c0,0.7-0.1,1.3-0.2,2c-1,4.6-5.2,8.1-10.3,8.1h-213c-5.8,0-10.5-4.5-10.5-10V98.3        c0-5.5,4.7-10,10.5-10h213C344.4,88.2,349.2,92.6,349.2,98.3z"/><path fill="#fff" d="M338.1,285h-76.8c-2.4,0-4.4-2-4.4-4.4V103.3c0-2.4,2-4.4,4.4-4.4h76.8c2.4,0,4.4,2,4.4,4.4v177.3        C342.5,283,340.5,285,338.1,285z"/><path fill="#ff7545" d="M308.7,232c0.8,0,1.5,0.7,1.5,1.5s-0.7,1.5-1.5,1.5h-5.6c-0.8,0-1.5-0.6-1.5-1.5s0.7-1.5,1.5-1.5H308.7z         "/><path fill="#fece16" d="M336.1,221.6c0,0.8-0.6,1.5-1.5,1.5h-20.4c-0.8,0-1.5-0.7-1.5-1.5c0-0.8,0.7-1.5,1.5-1.5h20.4         C335.4,220.2,336.1,220.8,336.1,221.6z"/><path fill="#fece16" d="M336.1,197.9c0,0.8-0.6,1.5-1.5,1.5h-27.1c-0.8,0-1.5-0.6-1.5-1.5c0-0.8,0.6-1.5,1.5-1.5h27.1         C335.4,196.4,336.1,197.1,336.1,197.9z"/><path fill="#fece16cc" d="M290.5,197.9c0-0.8,0.7-1.5,1.5-1.5h6.6c0.8,0,1.5,0.7,1.5,1.5c0,0.8-0.7,1.5-1.5,1.5H292         C291.2,199.4,290.5,198.7,290.5,197.9z"/><path fill="#ff7545" d="M297.3,258.7H292c-0.8,0-1.5-0.7-1.5-1.5s0.7-1.5,1.5-1.5h5.2c0.8,0,1.5,0.6,1.5,1.5         S298.1,258.7,297.3,258.7z"/><path fill="#fece16" d="M290.5,209.8c0-0.8,0.7-1.5,1.5-1.5h28.3c0.8,0,1.5,0.7,1.5,1.5c0,0.8-0.6,1.5-1.5,1.5H292         C291.2,211.2,290.5,210.6,290.5,209.8z"/><path fill="#fece16" d="M275.3,114.9c0,0.8-0.6,1.5-1.5,1.5h-9.1c-0.8,0-1.5-0.6-1.5-1.5s0.6-1.5,1.5-1.5h9.1         C274.7,113.4,275.3,114,275.3,114.9z"/><path fill="#ff7545" d="M290.5,174.2c0-0.8,0.7-1.5,1.5-1.5h12.8c0.8,0,1.5,0.7,1.5,1.5s-0.7,1.5-1.5,1.5H292         C291.2,175.6,290.5,175,290.5,174.2z"/><path fill="#fece16cc" d="M336.1,186c0,0.8-0.6,1.5-1.5,1.5h-6.9c-0.8,0-1.5-0.7-1.5-1.5c0-0.8,0.6-1.5,1.5-1.5h6.9         C335.4,184.6,336.1,185.2,336.1,186z"/><path fill="#fece16" d="M275.3,257.2c0,0.8-0.6,1.5-1.5,1.5h-9.1c-0.8,0-1.5-0.7-1.5-1.5s0.6-1.5,1.5-1.5h9.1         C274.7,255.8,275.3,256.4,275.3,257.2z"/><path fill="#fece16" d="M275.3,233.5c0,0.8-0.6,1.5-1.5,1.5h-9.1c-0.8,0-1.5-0.6-1.5-1.5s0.6-1.5,1.5-1.5h9.1         C274.7,232,275.3,232.7,275.3,233.5z"/><path fill="#fece16" d="M290.5,186c0-0.8,0.7-1.5,1.5-1.5h16.5c0.8,0,1.5,0.6,1.5,1.5c0,0.8-0.7,1.5-1.5,1.5H292         C291.2,187.5,290.5,186.8,290.5,186z"/><path fill="#fece16" d="M290.5,150.4c0-0.8,0.7-1.5,1.5-1.5h25.6c0.8,0,1.5,0.7,1.5,1.5s-0.7,1.5-1.5,1.5H292         C291.2,151.9,290.5,151.3,290.5,150.4z"/><path fill="#fece16" d="M275.3,221.6c0,0.8-0.6,1.5-1.5,1.5h-9.1c-0.8,0-1.5-0.7-1.5-1.5c0-0.8,0.6-1.5,1.5-1.5h9.1         C274.7,220.2,275.3,220.8,275.3,221.6z"/><path fill="#fece16" d="M275.3,186c0,0.8-0.6,1.5-1.5,1.5h-9.1c-0.8,0-1.5-0.7-1.5-1.5c0-0.8,0.6-1.5,1.5-1.5h9.1         C274.7,184.6,275.3,185.2,275.3,186z"/><path fill="#fece16" d="M275.3,245.4c0,0.8-0.6,1.5-1.5,1.5h-9.1c-0.8,0-1.5-0.6-1.5-1.5s0.6-1.5,1.5-1.5h9.1         C274.7,243.9,275.3,244.5,275.3,245.4z"/><path fill="#fece16" d="M275.3,174.2c0,0.8-0.6,1.5-1.5,1.5h-9.1c-0.8,0-1.5-0.7-1.5-1.5s0.6-1.5,1.5-1.5h9.1         C274.7,172.7,275.3,173.4,275.3,174.2z"/><path fill="#fece16" d="M275.3,138.6c0,0.8-0.6,1.5-1.5,1.5h-9.1c-0.8,0-1.5-0.7-1.5-1.5c0-0.8,0.6-1.5,1.5-1.5h9.1         C274.7,137.1,275.3,137.8,275.3,138.6z"/><path fill="#fece16" d="M275.3,162.3c0,0.8-0.6,1.5-1.5,1.5h-9.1c-0.8,0-1.5-0.6-1.5-1.5c0-0.8,0.6-1.5,1.5-1.5h9.1         C274.7,160.8,275.3,161.5,275.3,162.3z"/><path fill="#fece16" d="M275.3,126.7c0,0.8-0.6,1.5-1.5,1.5h-9.1c-0.8,0-1.5-0.7-1.5-1.5c0-0.8,0.6-1.5,1.5-1.5h9.1         C274.7,125.2,275.3,125.9,275.3,126.7z"/><path fill="#fece16" d="M275.3,197.9c0,0.8-0.6,1.5-1.5,1.5h-9.1c-0.8,0-1.5-0.6-1.5-1.5c0-0.8,0.6-1.5,1.5-1.5h9.1         C274.7,196.4,275.3,197.1,275.3,197.9z"/><path fill="#fece16cc" d="M290.5,233.5c0-0.8,0.7-1.5,1.5-1.5h3.2c0.8,0,1.5,0.7,1.5,1.5s-0.6,1.5-1.5,1.5H292         C291.2,234.9,290.5,234.3,290.5,233.5z"/><path fill="#fece16" d="M275.3,269.1c0,0.8-0.6,1.5-1.5,1.5h-9.1c-0.8,0-1.5-0.7-1.5-1.5c0-0.8,0.6-1.5,1.5-1.5h9.1         C274.7,267.6,275.3,268.3,275.3,269.1z"/><path fill="#fece16" d="M290.5,245.4c0-0.8,0.7-1.5,1.5-1.5h9.7c0.8,0,1.5,0.7,1.5,1.5s-0.7,1.5-1.5,1.5H292         C291.2,246.8,290.5,246.2,290.5,245.4z"/><path fill="#ff7545" d="M290.5,138.6c0-0.8,0.7-1.5,1.5-1.5h11.2c0.8,0,1.5,0.6,1.5,1.5c0,0.8-0.7,1.5-1.5,1.5H292         C291.2,140,290.5,139.4,290.5,138.6z"/><path fill="#fece16" d="M275.3,209.8c0,0.8-0.6,1.5-1.5,1.5h-9.1c-0.8,0-1.5-0.7-1.5-1.5c0-0.8,0.6-1.5,1.5-1.5h9.1         C274.7,208.3,275.3,209,275.3,209.8z"/><path fill="#fece16" d="M290.5,221.6c0-0.8,0.7-1.5,1.5-1.5h14.1c0.8,0,1.5,0.6,1.5,1.5c0,0.8-0.7,1.5-1.5,1.5H292         C291.2,223.1,290.5,222.4,290.5,221.6z"/><path fill="#fece16" d="M310.7,269.1c0,0.8-0.6,1.5-1.5,1.5H299c-0.8,0-1.5-0.7-1.5-1.5c0-0.8,0.7-1.5,1.5-1.5h10.2         C310,267.6,310.7,268.3,310.7,269.1z"/><path fill="#fece16" d="M318.7,257.2c0,0.8-0.7,1.5-1.5,1.5h-11.4c-0.8,0-1.5-0.7-1.5-1.5s0.7-1.5,1.5-1.5h11.4         C318.1,255.8,318.7,256.4,318.7,257.2z"/><path fill="#fece16" d="M275.3,150.4c0,0.8-0.6,1.5-1.5,1.5h-9.1c-0.8,0-1.5-0.6-1.5-1.5s0.6-1.5,1.5-1.5h9.1         C274.7,149,275.3,149.6,275.3,150.4z"/><path fill="#fece16" d="M328.6,269.1c0,0.8-0.7,1.5-1.5,1.5h-6.8c-0.8,0-1.5-0.7-1.5-1.5c0-0.8,0.7-1.5,1.5-1.5h6.8         C328,267.6,328.6,268.3,328.6,269.1z"/><path fill="#fece16cc" d="M325,151.9c-0.8,0-1.5-0.6-1.5-1.5s0.6-1.5,1.5-1.5h5.1c0.8,0,1.5,0.7,1.5,1.5s-0.7,1.5-1.5,1.5H325z"/><path fill="#fece16" d="M336.1,257.2c0,0.8-0.6,1.5-1.5,1.5h-7.9c-0.8,0-1.5-0.7-1.5-1.5s0.7-1.5,1.5-1.5h7.9         C335.4,255.8,336.1,256.4,336.1,257.2z"/><path fill="#fece16" d="M336.1,245.4c0,0.8-0.6,1.5-1.5,1.5h-24.7c-0.8,0-1.5-0.6-1.5-1.5s0.6-1.5,1.5-1.5h24.7         C335.4,243.9,336.1,244.5,336.1,245.4z"/><path fill="#fece16" d="M290.5,114.9c0-0.8,0.7-1.5,1.5-1.5h19.3c0.8,0,1.5,0.7,1.5,1.5s-0.7,1.5-1.5,1.5H292         C291.2,116.3,290.5,115.7,290.5,114.9z"/><path fill="#fece16" d="M336.1,233.5c0,0.8-0.6,1.5-1.5,1.5h-12.7c-0.8,0-1.5-0.6-1.5-1.5s0.7-1.5,1.5-1.5h12.7         C335.4,232,336.1,232.7,336.1,233.5z"/><path fill="#fece16cc" d="M320.9,114.9c0-0.8,0.6-1.5,1.5-1.5h12.2c0.8,0,1.5,0.7,1.5,1.5s-0.6,1.5-1.5,1.5h-12.2         C321.6,116.3,320.9,115.7,320.9,114.9z"/><path fill="#fece16" d="M336.1,126.7c0,0.8-0.6,1.5-1.5,1.5h-35.8c-0.8,0-1.5-0.7-1.5-1.5c0-0.8,0.7-1.5,1.5-1.5h35.8         C335.4,125.2,336.1,125.9,336.1,126.7z"/><path fill="#fece16" d="M336.1,174.2c0,0.8-0.6,1.5-1.5,1.5h-17.8c-0.8,0-1.5-0.7-1.5-1.5s0.7-1.5,1.5-1.5h17.8         C335.4,172.7,336.1,173.4,336.1,174.2z"/><path fill="#fece16" d="M336.1,138.6c0,0.8-0.6,1.5-1.5,1.5h-18c-0.8,0-1.5-0.7-1.5-1.5c0-0.8,0.7-1.5,1.5-1.5h18         C335.4,137.1,336.1,137.8,336.1,138.6z"/><path fill="#fece16" d="M336.1,162.3c0,0.8-0.6,1.5-1.5,1.5h-28.3c-0.8,0-1.5-0.6-1.5-1.5c0-0.8,0.7-1.5,1.5-1.5h28.3         C335.4,160.8,336.1,161.5,336.1,162.3z"/><g><path fill="#fff" d="M131,99.7c0,1.7-1.5,3.1-3.2,3.1c-1.8,0-3.2-1.4-3.2-3.1c0-1.7,1.4-3.1,3.2-3.1         C129.5,96.7,131,98,131,99.7z"/><path fill="#fff" d="M149.1,99.7c0,1.7-1.5,3.1-3.2,3.1s-3.2-1.4-3.2-3.1c0-1.7,1.4-3.1,3.2-3.1S149.1,98,149.1,99.7z"/><path fill="#fff" d="M140,99.7c0,1.7-1.5,3.1-3.2,3.1c-1.8,0-3.2-1.4-3.2-3.1c0-1.7,1.4-3.1,3.2-3.1         C138.6,96.7,140,98,140,99.7z"/></g><g><path fill="#fff" d="M519.7,343.6c0,0.6,27.2,96,27.2,96"/><path fill="#060405" d="M546.2,439.8c-12.4-43.6-27.2-95.6-27.2-96.2h1.5h-0.8l0.7-0.1c0.3,1.5,17.9,63.4,27.2,95.9          L546.2,439.8z"/><path fill="#fff" d="M487.3,343.6c0,0.6-27.2,96-27.2,96"/><path fill="#060405" d="M460.8,439.8l-1.4-0.4c9.3-32.5,26.9-94.4,27.2-95.9l0.6,0.1h0.9C488,344.2,473.2,396.2,460.8,439.8z"/><path fill="#fece16cc" d="M483.7,421.5l-2.4-2.2l13.1-14.4c4.9,4.1,14,11.7,14.1,11.6l-21.3,23.5          C478.7,433.7,483.7,421.5,483.7,421.5z"/><path fill="#060405" d="M484.1,436.6c0.7,1.2,1.7,2.4,3.1,3.4l21.3-23.5c0,0-1.5-1.1-3.6-2.8L484.1,436.6z"/><path fill="#fff" d="M555.1,257.7c1.1-5.2,2.8-18.4-14.9-15.2c-10.7,1.9-28,22.6-28,22.6h-5.7l-31.1,59.1v22.7"/><path fill="#060405" d="M476,346.9h-1V324l0.1-0.1l31.2-59.4h5.7c1.8-2.2,17.9-20.8,28.2-22.6c5.2-0.9,9.2-0.5,11.9,1.2         l-0.5,0.8c-2.5-1.6-6.2-1.9-11.2-1c-10.4,1.8-27.6,22.2-27.7,22.4l-0.1,0.2h-5.6L476,324.3V346.9z"/><path fill="#060405" d="M401.3,318.8c-6.7,34.6,79.8,99.3,79.8,99.3c1.2,1.4,15.6-12,14.3-13.4l-46-72.6l31-14.6l-3-17.5         l-23.1-0.9C454.5,299.1,404.2,303.8,401.3,318.8z"/><path fill="#fece16cc" d="M390.8,425v-3.3h19.5c0.3,6.3,0.8,18.2,0.9,18.2h-31.7C378.4,429.5,390.8,425,390.8,425z"/><path fill="#060405" d="M379.9,435.4c-0.4,1.4-0.6,2.9-0.4,4.5h31.7c-0.1,0-0.2-1.9-0.3-4.5H379.9z"/><path fill="#060405" d="M420.1,315c-16.8,18.6-29.3,108.5-29.3,108.5c0,2,19.6,3.3,19.6,1.4l39-81.4c0,0,49.2,7.2,59.8,0         c10.6-7.2,15.7-33.6,15.7-33.6L495,306C495,306,433.2,300.6,420.1,315z"/><path fill="#fff" d="M408.8,341.7l-0.5-0.1c2.2-7.6,4.5-15.4,8.2-22.5c1-1.9,2.2-3.9,3.9-5.5c1.8-1.7,4.1-2.6,6.2-2.4l0,0.5         c-2-0.1-4.1,0.7-5.8,2.3c-1.6,1.5-2.8,3.5-3.7,5.4C413.3,326.3,411,334.1,408.8,341.7z"/><path fill="#fff" d="M433.7,375.8l-0.4-0.3c4.5-6.2,8-13.1,10.3-20.4l0.5,0.1C441.7,362.6,438.3,369.6,433.7,375.8z"/><path fill="#fff" d="M475.5,346.9h51.8c3,0,5.6-2,6.3-4.9l21.5-84.3"/><path fill="#060405" d="M527.3,347.4h-51.8v-1h51.8c2.8,0,5.2-1.9,5.8-4.5l21.5-84.3l1,0.2l-21.5,84.3         C533.3,345.2,530.5,347.4,527.3,347.4z"/><path fill="#fff" d="M449.4,234.8c-0.7-0.1-15.1,29.9-15.1,29.9l-51.9,9.5l-0.9,14l76.6,2.2l5.8-53.9L449.4,234.8z"/><path fill="#060405" d="M458.5,291l-0.5,0l-77.1-2.2l0.9-14.9l52.1-9.5c14.5-30.1,15.1-30.1,15.5-30l15,1.8L458.5,291z          M382,287.8l75.6,2.2l5.7-52.9l-13.8-1.7c-1.3,1.8-9.5,18.5-14.9,29.6l-0.1,0.2l-51.8,9.5L382,287.8z"/><polygon fill="#fd6035" points="456.3 214.8 444 235.8 456.2 245.4"/><path fill="#fd6035" d="M543.2,215.8c-2.4-7.7-28.1-23.1-28.1-23.1l-26-0.8c0,0-25.9,12.8-32.6,22.6c-3.4,5-11,87.7-11,87.7h80.9        C526.4,302.3,546.6,226.6,543.2,215.8z"/><path fill="#fff" d="M489.8,181.3c0,0,1.7,6.2-0.9,10.8c-2,3.5-1.2,9.5,3.7,10.8c7.9,2.1,21.8-10.2,21.8-10.2l-6.5-34.5        L489.8,181.3z"/><path fill="#060405" d="M492.5,203.4c-2-0.5-3.5-1.9-4.4-3.8c-1-2.4-0.9-5.5,0.4-7.7c1.7-3,1.6-7.4,0.8-10.7l19-24.2l6.7,35.9        l-0.2,0.2C509.7,197.5,499,205.1,492.5,203.4z M490.3,181.4c0.3,1.2,1.4,6.7-1,11c-1.1,2-1.2,4.7-0.3,6.8        c0.5,1.2,1.6,2.7,3.7,3.3c7,1.8,19.4-8.4,21.1-9.9l-6.2-33.2L490.3,181.4z"/><path fill="#fff" d="M508,154.4c-0.2,0.5,1.5,28.5-15.4,29.3c-17,0.8-18.1-34.3-11.9-43.1c6.2-8.8,22.5-4.4,22.5-4.4l6.9,11.2        L508,154.4z"/><path fill="#060405" d="M492,184.2c-4.6,0-8.4-2.6-11.1-7.5c-5.8-10.6-5.3-29.8-0.7-36.4c6.3-9,22.3-4.8,23-4.6l0.2,0.1l7.1,11.5        l-2.1,7.2c0,0.1,0,0.4,0,0.8c-0.1,18.1-5.8,28.4-15.9,28.9C492.4,184.2,492.2,184.2,492,184.2z M494.3,135.6        c-4.7,0-10.2,1.1-13.2,5.3c-4.4,6.2-4.8,25.2,0.7,35.4c2.7,4.8,6.3,7.2,10.7,7c9.6-0.5,14.8-10.1,14.9-27.9c0-0.8,0-1,0.1-1.1        l2-6.8l-6.7-10.8C502,136.4,498.4,135.6,494.3,135.6z"/><path fill="#060405" d="M510.8,173.1c0,0,9-18.1,0.2-34.7s-27.6-12.7-33.7-18.5c0,0-10.2,6.5-2.2,15.3c0,0-4.5,2.5-9.5-1.6        c0,0-1,6.2,3.2,11.6c7.6,9.8,26.7-1.8,29.5-1.3c-0.9,7.1,9.7,15.8,9.7,15.8L510.8,173.1z"/><path fill="#fff" d="M475.5,346.9c0,0,2.8-26.9,12.6-36c14.6-13.6,39.5-12.9,46.3-21.5c4.5-6.3,6.6-13.8,10.2-27.8l5.6,11.8         c0,0-14.6,36.4-14.9,37c-0.4,0.7-33,29.6-33,29.6L475.5,346.9z"/><path fill="#060405" d="M476,346.9l-1-0.1c0.1-1.1,2.9-27.2,12.8-36.3c8-7.4,18.9-10.6,28.5-13.4c7.9-2.3,14.7-4.2,17.7-8         c3.6-5,5.7-11.1,8.1-19.9l1,0.3c-2.4,8.9-4.6,15.1-8.3,20.3c-3.2,4.1-10.2,6.1-18.2,8.4c-9.5,2.7-20.3,5.9-28.1,13.1         C478.9,320.1,476,346.6,476,346.9z"/><path fill="#060405" d="M527.3,347.4h-51.8v-1h51.8c2.8,0,5.2-1.9,5.8-4.5l21.5-84.3c1.4-6.8,0.3-11.4-3.1-13.6l0.5-0.8        c3.9,2.4,5.1,7.4,3.6,14.7l-21.5,84.3C533.3,345.2,530.5,347.4,527.3,347.4z"/><g><rect width="70.6" height="9.2" x="315.6" y="296.1" fill="#fff"/></g><g><path fill="#060405" d="M386.6,305.8h-71.6v-10.2h71.6V305.8z M316.1,304.8h69.6v-8.2h-69.6V304.8z"/></g><g><rect width="149" height="9.2" x="386.1" y="296.1" fill="#1F1E1A"/></g><g><path fill="#060405" d="M535.6,305.8h-150v-10.2h150V305.8z M386.6,304.8h148v-8.2h-148V304.8z"/></g><g><rect width="15.6" height="1" x="445.2" y="234" fill="#060405" transform="rotate(-83.835 452.997 234.488)"/></g><g><line x1="496" x2="521.1" y1="305.3" y2="439.6" fill="#fff"/><rect width="1.5" height="136.6" x="507.8" y="304.1" fill="#060405" transform="rotate(-10.597 508.5 372.407)"/></g><g><line x1="348.6" x2="323.5" y1="305.3" y2="439.6" fill="#fff"/><rect width="136.6" height="1.5" x="267.7" y="371.7" fill="#060405" transform="rotate(-79.42 336.072 372.431)"/></g><g><ellipse cx="494.2" cy="156.8" fill="#060405" rx="1.2" ry="1.7" transform="rotate(-6.88 494.26 156.76)"/></g><g><ellipse cx="483.2" cy="158.5" fill="#060405" rx="1.2" ry="1.7" transform="rotate(-6.88 483.238 158.43)"/></g><g><path fill="#060405" d="M490.3,168.2c-0.2-0.1-0.4-0.1-1.1-0.1c0,0,0,0,0,0c-0.8,0-1.4-0.3-1.6-0.9c-0.3-0.7,0.2-1.3,0.5-1.7        c1.2-1.8,1.5-4.1,0.7-6.1l0.9-0.4c0.9,2.3,0.6,5-0.8,7c-0.2,0.3-0.4,0.6-0.4,0.8c0.1,0.1,0.4,0.3,0.7,0.3        c0.6,0,1.1-0.1,1.6,0.2L490.3,168.2z"/></g><g><path fill="#060405" d="M492.2,176.3l0.2-1c0.7,0.2,1.5,0,2.1-0.4c0.6-0.4,1.1-1,1.2-1.8l1,0.2c-0.2,1-0.8,1.8-1.7,2.4        C494.2,176.4,493.1,176.6,492.2,176.3z"/></g><g><path fill="#fff" d="M547.8,243l-17.4,47.6c-1.2,3.2-4.4,5.1-7.7,4.5l-70.1-12.4c-4.1-0.4-6,0.3-9.1,2.3         c-3.1,2.1-6.4-0.2-6.4-0.2s-4.6,4.3-6.7,5.3c-2.1,1-4.7,0-4.7,0s13.6-14.4,16.3-16.3c4.2-3,10.1-3.9,10.1-3.9l57.6-2.7         l14.5-33.9L547.8,243z"/><path fill="#060405" d="M523.9,295.7c-0.4,0-0.9,0-1.3-0.1l-70.1-12.4c-4-0.4-5.7,0.2-8.8,2.2c-2.8,1.8-5.6,0.5-6.6,0         c-1.1,1-4.7,4.2-6.5,5.1c-2.2,1-4.9,0.1-5,0l-0.7-0.3l0.5-0.5c0.6-0.6,13.6-14.5,16.3-16.4c4.3-3,10.1-4,10.3-4l57.3-2.7         l14.6-34.1l24.5,10.2l-17.5,48.1C529.8,293.8,527,295.7,523.9,295.7z M450.6,282.2c0.6,0,1.3,0,2,0.1l70.2,12.4         c3.1,0.5,6.1-1.2,7.2-4.1l17.2-47.2l-22.7-9.4L510,267.6l-57.9,2.7c0,0-5.8,0.9-9.9,3.8c-2.3,1.6-13,12.9-15.6,15.6         c0.9,0.2,2.3,0.4,3.5-0.2c2-0.9,6.5-5.1,6.6-5.2l0.3-0.3l0.3,0.2c0.1,0.1,3,2.1,5.8,0.2C445.8,283,447.6,282.2,450.6,282.2z"/></g><g><path fill="#fd6035" d="M542.3,213.7c0,0,5.2,7.5,6.2,10.3c2.9,8.4,0.4,34.6,0.4,34.6l-36-5.9l6.4-16.1"/></g><g><polygon fill="#060405" points="548.8 259.1 512.2 253.1 517.1 241.8 518 242.1 513.6 252.3 549 258.2"/></g><g><path fill="#fff" d="M416.2,288.3c-93.8,0-88.4,0.1-89.5-0.1c-2.4-0.4-4.5-2.1-5.4-4.5l-14.8-42.5c-1.8-4.7,1.7-9.7,6.7-9.7         H391c3,0,5.6,1.8,6.7,4.6L416.2,288.3z"/><path fill="#fece16" d="M324.5,282.1c0.8,2,1.5,4,2.2,6.1c-2.4-0.4-4.5-2.1-5.4-4.5l-14.8-42.5c-1.8-4.7,1.7-9.7,6.7-9.7h22.9         c-5.3,1.8-9.7,4.3-12.9,9.1c-3.9,6-5,13.6-4.3,20.8C319.6,268.4,322,275.3,324.5,282.1z"/><path fill="#060405" d="M416.9,288.8c-94.2,0-89.1,0.1-90.3-0.1c-2.6-0.5-4.8-2.3-5.8-4.8L306,241.3c-1.9-5,1.8-10.4,7.2-10.4         H391c3.2,0,6.1,2,7.2,4.9L416.9,288.8z M313.2,231.9c-4.7,0-7.9,4.7-6.2,9l14.8,42.5c0.8,2.1,2.8,3.8,5,4.2         c1.1,0.2-4.1,0.1,88.7,0.1l-18.3-51.6c-1-2.6-3.5-4.3-6.2-4.3H313.2z"/><path fill="#fff" d="M385,235.4c2.7,0,5,1.6,6,4.1l14,39.5"/><path fill="#060405" d="M404.5,279.2l-14-39.5c-0.9-2.3-3.1-3.8-5.5-3.8v-1c2.9,0,5.4,1.8,6.5,4.5l14,39.5L404.5,279.2z"/><path fill="#060405" d="M456.5,292.1v1.4c0,1.5-1.2,2.6-2.6,2.6H331.3c-2.2,0-3.9-1.8-3.9-3.9c0-2.2,1.8-3.9,3.9-3.9h121.4          C454.8,288.3,456.5,290,456.5,292.1z"/><path fill="#060405" d="M453.8,296.6H331.3c-2.4,0-4.4-2-4.4-4.4c0-2.4,2-4.4,4.4-4.4h121.4c2.4,0,4.3,1.9,4.3,4.3v1.4          C457,295.2,455.6,296.6,453.8,296.6z M331.3,288.8c-1.9,0-3.4,1.5-3.4,3.4c0,1.9,1.5,3.4,3.4,3.4h122.5c1.2,0,2.1-1,2.1-2.1          v-1.4c0-1.8-1.5-3.3-3.3-3.3H331.3z"/><g><ellipse cx="355.9" cy="262.7" fill="#fece16" rx="4.4" ry="6.6" transform="rotate(-30.952 355.9 262.666)"/></g></g></g><g><path fill="#fff" d="M228.8,125.9h-88.6c-6.2,0-11.2,5-11.2,11.2v0c0,6.2,5,11.2,11.2,11.2h88.6V125.9z"/><path fill="#060405" d="M229.3,148.8h-89.1c-6.4,0-11.7-5.2-11.7-11.7s5.2-11.7,11.7-11.7h89.1V148.8z M140.2,126.4         c-5.9,0-10.7,4.8-10.7,10.7s4.8,10.7,10.7,10.7h88.1v-21.4H140.2z"/><path fill="#060405" d="M245.6,137.1c0,3.8-1.5,7.3-4,9.8c-2.5,2.5-5.9,4-9.8,4c-7.6,0-13.8-6.2-13.8-13.8c0-3.8,1.5-7.3,4-9.8         c2.5-2.5,5.9-4,9.8-4c3.8,0,7.3,1.5,9.8,4C244,129.9,245.6,133.3,245.6,137.1z"/><path fill="#fff" d="M232.8,141.8c-1.5,0-2.9-0.6-4-1.7c-2.2-2.2-2.2-5.9,0-8.1c2.2-2.2,5.9-2.2,8.1,0           c2.2,2.2,2.2,5.9,0,8.1v0C235.8,141.2,234.3,141.8,232.8,141.8z M232.8,133.3c-0.7,0-1.4,0.3-2,0.8c-1.1,1.1-1.1,2.8,0,3.9           c1.1,1.1,2.8,1.1,3.9,0l0,0c1.1-1.1,1.1-2.8,0-3.9C234.3,133.5,233.5,133.3,232.8,133.3z"/><path fill="#fff" d="M226.4,143.9c-0.4,0-0.8-0.1-1-0.4c-0.6-0.6-0.6-1.5,0-2.1l3.4-3.4c0.6-0.6,1.5-0.6,2.1,0           c0.6,0.6,0.6,1.5,0,2.1l-3.4,3.4C227.2,143.8,226.8,143.9,226.4,143.9z"/></g><g><path fill="#fff" d="M183.9,209.3h-55.4c-1.9,0-3.5-1.5-3.5-3.5v-42.5c0-1.9,1.5-3.5,3.5-3.5h55.4c1.9,0,3.5,1.5,3.5,3.5v42.5       C187.4,207.7,185.8,209.3,183.9,209.3z"/></g><g><path fill="#060405" d="M175.1,197.2h-37.8c-0.9,0-1.4-1.1-0.8-1.8l8.3-9.7c0.4-0.5,1.2-0.5,1.7,0l4.1,4.8        c0.5,0.5,1.3,0.5,1.7-0.1l9.2-12.4c0.4-0.6,1.3-0.6,1.8,0l12.9,17.5C176.5,196.2,176,197.2,175.1,197.2z"/><circle cx="148.6" cy="175.9" r="4" fill="#060405"/></g><g><rect width="51.5" height="13" x="194.8" y="162.9" fill="#fff"/></g><g><rect width="47.7" height="2.7" x="194.8" y="181.8" fill="#fff"/><rect width="47.7" height="2.7" x="194.8" y="188.7" fill="#fff"/><rect width="47.7" height="2.7" x="194.8" y="195.6" fill="#fff"/><rect width="15.5" height="2.7" x="194.8" y="202.5" fill="#fff"/><rect width="7" height="2.7" x="216.1" y="202.5" fill="#fff"/></g><g><path fill="#fff" d="M241.7,281.3H129.5c-2.5,0-4.5-2-4.5-4.5v-53.5c0-2.5,2-4.5,4.5-4.5h112.2c2.5,0,4.5,2,4.5,4.5v53.5       C246.2,279.2,244.2,281.3,241.7,281.3z"/></g><g><path fill="#d2e4ff" d="M221.3,230.8L221.3,230.8c0,0.8,0.7,1.5,1.5,1.5h12.5c0.8,0,1.5-0.7,1.5-1.5l0,0c0-0.8-0.7-1.5-1.5-1.5        h-12.5C222,229.3,221.3,230,221.3,230.8z"/><path fill="#d2e4ff" d="M204,229.3h-68c-0.8,0-1.5,0.7-1.5,1.5l0,0c0,0.8,0.7,1.5,1.5,1.5h68c0.8,0,1.5-0.7,1.5-1.5l0,0        C205.5,230,204.8,229.3,204,229.3z"/><path fill="#d2e4ff" d="M168.4,238.9H136c-0.8,0-1.5,0.7-1.5,1.5l0,0c0,0.8,0.7,1.5,1.5,1.5h32.4c0.8,0,1.5-0.7,1.5-1.5l0,0        C169.9,239.6,169.3,238.9,168.4,238.9z"/><path fill="#d2e4ff" d="M180,240.4L180,240.4c0,0.8,0.7,1.5,1.5,1.5h53.7c0.8,0,1.5-0.7,1.5-1.5l0,0c0-0.8-0.7-1.5-1.5-1.5h-53.7        C180.7,238.9,180,239.6,180,240.4z"/><path fill="#d2e4ff" d="M202.9,248.5H136c-0.8,0-1.5,0.7-1.5,1.5v0c0,0.8,0.7,1.5,1.5,1.5h66.9c0.8,0,1.5-0.7,1.5-1.5v0        C204.4,249.2,203.7,248.5,202.9,248.5z"/><path fill="#d2e4ff" d="M217.9,250L217.9,250c0,0.8,0.7,1.5,1.5,1.5h15.9c0.8,0,1.5-0.7,1.5-1.5v0c0-0.8-0.7-1.5-1.5-1.5h-15.9        C218.6,248.5,217.9,249.2,217.9,250z"/><path fill="#d2e4ff" d="M155.3,258.1H136c-0.8,0-1.5,0.7-1.5,1.5l0,0c0,0.8,0.7,1.5,1.5,1.5h19.4c0.8,0,1.5-0.7,1.5-1.5l0,0        C156.9,258.8,156.2,258.1,155.3,258.1z"/><path fill="#d2e4ff" d="M161.6,259.6L161.6,259.6c0,0.8,0.7,1.5,1.5,1.5h72.2c0.8,0,1.5-0.7,1.5-1.5l0,0c0-0.8-0.7-1.5-1.5-1.5        h-72.2C162.2,258.1,161.6,258.8,161.6,259.6z"/><path fill="#d2e4ff" d="M169.4,267.7H136c-0.8,0-1.5,0.7-1.5,1.5v0c0,0.8,0.7,1.5,1.5,1.5h33.4c0.8,0,1.5-0.7,1.5-1.5v0        C170.9,268.3,170.3,267.7,169.4,267.7z"/><path fill="#d2e4ff" d="M198.9,267.7h-15.7c-0.8,0-1.5,0.7-1.5,1.5v0c0,0.8,0.7,1.5,1.5,1.5h15.7c0.8,0,1.5-0.7,1.5-1.5v0        C200.4,268.3,199.7,267.7,198.9,267.7z"/></g><g><path fill="#060405" d="M386.8,159c7.6,2.4,15.6,1.2,21.9-2.8l-3.9-5.3c0.1-0.1,2-1.5,1.9-1.4l3.9,5.3c4-3.1,7.2-7.4,8.9-12.6       c4.4-13.6-3.2-28.2-16.8-32.6c-13.6-4.4-28.2,3.2-32.6,16.8C365.7,140.1,373.2,154.7,386.8,159z"/></g><g><polygon fill="#060405" points="421.2 166 419.7 167.1 406.1 148.9 407.6 147.8"/></g><g><path fill="#fff" d="M386.4,129.7l-8.5,3.8c-0.6,0.3-1.1,0.9-1.1,1.6v0.2c0,0.7,0.4,1.3,1.1,1.6l8.5,3.8l0,0        c1.7,0.6,2.7-1.8,1-2.5l-6.7-3l6.7-3C389.1,131.5,388.1,129,386.4,129.7z"/><path fill="#fff" d="M396.3,125.6l-5.7,16.6c-0.6,1.8,2,2.6,2.6,0.9l5.7-16.6C399.5,124.7,396.9,123.9,396.3,125.6z"/><path fill="#fff" d="M411.6,133.5l-8.5-3.8c-1.7-0.7-2.7,1.8-1,2.5l6.7,3l-6.7,3c-0.3,0.1-0.5,0.3-0.6,0.5        c-0.8,1.1,0.4,2.6,1.6,2l8.5-3.8c0.6-0.3,1.1-0.9,1.1-1.6v-0.2C412.7,134.4,412.3,133.8,411.6,133.5z"/></g></g></svg>