<svg xmlns="http://www.w3.org/2000/svg" id="Layer_1" x="0" y="0" enable-background="new 0 0 600 500" version="1.1" xml:space="preserve" viewBox="305.5 108.35 250.73 331.65"><g id="Software_Developer"><g><path fill="#fff" d="M519.7,343.6c0,0.6,27.2,96,27.2,96"/><path fill="#060405" d="M546.2,439.8c-12.4-43.6-27.2-95.6-27.2-96.2h1.5h-0.8l0.7-0.1c0.3,1.5,17.9,63.4,27.2,95.9          L546.2,439.8z"/><path fill="#fff" d="M487.3,343.6c0,0.6-27.2,96-27.2,96"/><path fill="#060405" d="M460.8,439.8l-1.4-0.4c9.3-32.5,26.9-94.4,27.2-95.9l0.6,0.1h0.9C488,344.2,473.2,396.2,460.8,439.8z"/><path fill="#fd6035" d="M483.7,421.5l-2.4-2.2l13.1-14.4c4.9,4.1,14,11.7,14.1,11.6l-21.3,23.5          C478.7,433.7,483.7,421.5,483.7,421.5z"/><path fill="#060405" d="M484.1,436.6c0.7,1.2,1.7,2.4,3.1,3.4l21.3-23.5c0,0-1.5-1.1-3.6-2.8L484.1,436.6z"/><path fill="#fff" d="M555.1,257.7c1.1-5.2,2.8-18.4-14.9-15.2c-10.7,1.9-28,22.6-28,22.6h-5.7l-31.1,59.1v22.7"/><path fill="#060405" d="M476,346.9h-1V324l0.1-0.1l31.2-59.4h5.7c1.8-2.2,17.9-20.8,28.2-22.6c5.2-0.9,9.2-0.5,11.9,1.2         l-0.5,0.8c-2.5-1.6-6.2-1.9-11.2-1c-10.4,1.8-27.6,22.2-27.7,22.4l-0.1,0.2h-5.6L476,324.3V346.9z"/><path fill="#060405" d="M401.3,318.8c-6.7,34.6,79.8,99.3,79.8,99.3c1.2,1.4,15.6-12,14.3-13.4l-46-72.6l31-14.6l-3-17.5         l-23.1-0.9C454.5,299.1,404.2,303.8,401.3,318.8z"/><path fill="#fd6035" d="M390.8,425v-3.3h19.5c0.3,6.3,0.8,18.2,0.9,18.2h-31.7C378.4,429.5,390.8,425,390.8,425z"/><path fill="#060405" d="M379.9,435.4c-0.4,1.4-0.6,2.9-0.4,4.5h31.7c-0.1,0-0.2-1.9-0.3-4.5H379.9z"/><path fill="#060405" d="M420.1,315c-16.8,18.6-29.3,108.5-29.3,108.5c0,2,19.6,3.3,19.6,1.4l39-81.4c0,0,49.2,7.2,59.8,0         c10.6-7.2,15.7-33.6,15.7-33.6L495,306C495,306,433.2,300.6,420.1,315z"/><path fill="#fff" d="M408.8,341.7l-0.5-0.1c2.2-7.6,4.5-15.4,8.2-22.5c1-1.9,2.2-3.9,3.9-5.5c1.8-1.7,4.1-2.6,6.2-2.4l0,0.5         c-2-0.1-4.1,0.7-5.8,2.3c-1.6,1.5-2.8,3.5-3.7,5.4C413.3,326.3,411,334.1,408.8,341.7z"/><path fill="#fff" d="M433.7,375.8l-0.4-0.3c4.5-6.2,8-13.1,10.3-20.4l0.5,0.1C441.7,362.6,438.3,369.6,433.7,375.8z"/><path fill="#fff" d="M475.5,346.9h51.8c3,0,5.6-2,6.3-4.9l21.5-84.3"/><path fill="#060405" d="M527.3,347.4h-51.8v-1h51.8c2.8,0,5.2-1.9,5.8-4.5l21.5-84.3l1,0.2l-21.5,84.3         C533.3,345.2,530.5,347.4,527.3,347.4z"/><path fill="#fff" d="M449.4,234.8c-0.7-0.1-15.1,29.9-15.1,29.9l-51.9,9.5l-0.9,14l76.6,2.2l5.8-53.9L449.4,234.8z"/><path fill="#060405" d="M458.5,291l-0.5,0l-77.1-2.2l0.9-14.9l52.1-9.5c14.5-30.1,15.1-30.1,15.5-30l15,1.8L458.5,291z          M382,287.8l75.6,2.2l5.7-52.9l-13.8-1.7c-1.3,1.8-9.5,18.5-14.9,29.6l-0.1,0.2l-51.8,9.5L382,287.8z"/><polygon fill="#fd6035" points="456.3 214.8 444 235.8 456.2 245.4"/><path fill="#fd6035" d="M543.2,215.8c-2.4-7.7-28.1-23.1-28.1-23.1l-26-0.8c0,0-25.9,12.8-32.6,22.6c-3.4,5-11,87.7-11,87.7h80.9        C526.4,302.3,546.6,226.6,543.2,215.8z"/><path fill="#fff" d="M489.8,181.3c0,0,1.7,6.2-0.9,10.8c-2,3.5-1.2,9.5,3.7,10.8c7.9,2.1,21.8-10.2,21.8-10.2l-6.5-34.5        L489.8,181.3z"/><path fill="#060405" d="M492.5,203.4c-2-0.5-3.5-1.9-4.4-3.8c-1-2.4-0.9-5.5,0.4-7.7c1.7-3,1.6-7.4,0.8-10.7l19-24.2l6.7,35.9        l-0.2,0.2C509.7,197.5,499,205.1,492.5,203.4z M490.3,181.4c0.3,1.2,1.4,6.7-1,11c-1.1,2-1.2,4.7-0.3,6.8        c0.5,1.2,1.6,2.7,3.7,3.3c7,1.8,19.4-8.4,21.1-9.9l-6.2-33.2L490.3,181.4z"/><path fill="#fff" d="M508,154.4c-0.2,0.5,1.5,28.5-15.4,29.3c-17,0.8-18.1-34.3-11.9-43.1c6.2-8.8,22.5-4.4,22.5-4.4l6.9,11.2        L508,154.4z"/><path fill="#060405" d="M492,184.2c-4.6,0-8.4-2.6-11.1-7.5c-5.8-10.6-5.3-29.8-0.7-36.4c6.3-9,22.3-4.8,23-4.6l0.2,0.1l7.1,11.5        l-2.1,7.2c0,0.1,0,0.4,0,0.8c-0.1,18.1-5.8,28.4-15.9,28.9C492.4,184.2,492.2,184.2,492,184.2z M494.3,135.6        c-4.7,0-10.2,1.1-13.2,5.3c-4.4,6.2-4.8,25.2,0.7,35.4c2.7,4.8,6.3,7.2,10.7,7c9.6-0.5,14.8-10.1,14.9-27.9c0-0.8,0-1,0.1-1.1        l2-6.8l-6.7-10.8C502,136.4,498.4,135.6,494.3,135.6z"/><path fill="#060405" d="M510.8,173.1c0,0,9-18.1,0.2-34.7s-27.6-12.7-33.7-18.5c0,0-10.2,6.5-2.2,15.3c0,0-4.5,2.5-9.5-1.6        c0,0-1,6.2,3.2,11.6c7.6,9.8,26.7-1.8,29.5-1.3c-0.9,7.1,9.7,15.8,9.7,15.8L510.8,173.1z"/><path fill="#fff" d="M475.5,346.9c0,0,2.8-26.9,12.6-36c14.6-13.6,39.5-12.9,46.3-21.5c4.5-6.3,6.6-13.8,10.2-27.8l5.6,11.8         c0,0-14.6,36.4-14.9,37c-0.4,0.7-33,29.6-33,29.6L475.5,346.9z"/><path fill="#060405" d="M476,346.9l-1-0.1c0.1-1.1,2.9-27.2,12.8-36.3c8-7.4,18.9-10.6,28.5-13.4c7.9-2.3,14.7-4.2,17.7-8         c3.6-5,5.7-11.1,8.1-19.9l1,0.3c-2.4,8.9-4.6,15.1-8.3,20.3c-3.2,4.1-10.2,6.1-18.2,8.4c-9.5,2.7-20.3,5.9-28.1,13.1         C478.9,320.1,476,346.6,476,346.9z"/><path fill="#060405" d="M527.3,347.4h-51.8v-1h51.8c2.8,0,5.2-1.9,5.8-4.5l21.5-84.3c1.4-6.8,0.3-11.4-3.1-13.6l0.5-0.8        c3.9,2.4,5.1,7.4,3.6,14.7l-21.5,84.3C533.3,345.2,530.5,347.4,527.3,347.4z"/><g><rect width="70.6" height="9.2" x="315.6" y="296.1" fill="#fff"/></g><g><path fill="#060405" d="M386.6,305.8h-71.6v-10.2h71.6V305.8z M316.1,304.8h69.6v-8.2h-69.6V304.8z"/></g><g><rect width="149" height="9.2" x="386.1" y="296.1" fill="#1F1E1A"/></g><g><path fill="#060405" d="M535.6,305.8h-150v-10.2h150V305.8z M386.6,304.8h148v-8.2h-148V304.8z"/></g><g><rect width="15.6" height="1" x="445.2" y="234" fill="#060405" transform="rotate(-83.835 452.997 234.488)"/></g><g><line x1="496" x2="521.1" y1="305.3" y2="439.6" fill="#fff"/><rect width="1.5" height="136.6" x="507.8" y="304.1" fill="#060405" transform="rotate(-10.597 508.5 372.407)"/></g><g><line x1="348.6" x2="323.5" y1="305.3" y2="439.6" fill="#fff"/><rect width="136.6" height="1.5" x="267.7" y="371.7" fill="#060405" transform="rotate(-79.42 336.072 372.431)"/></g><g><ellipse cx="494.2" cy="156.8" fill="#060405" rx="1.2" ry="1.7" transform="rotate(-6.88 494.26 156.76)"/></g><g><ellipse cx="483.2" cy="158.5" fill="#060405" rx="1.2" ry="1.7" transform="rotate(-6.88 483.238 158.43)"/></g><g><path fill="#060405" d="M490.3,168.2c-0.2-0.1-0.4-0.1-1.1-0.1c0,0,0,0,0,0c-0.8,0-1.4-0.3-1.6-0.9c-0.3-0.7,0.2-1.3,0.5-1.7        c1.2-1.8,1.5-4.1,0.7-6.1l0.9-0.4c0.9,2.3,0.6,5-0.8,7c-0.2,0.3-0.4,0.6-0.4,0.8c0.1,0.1,0.4,0.3,0.7,0.3        c0.6,0,1.1-0.1,1.6,0.2L490.3,168.2z"/></g><g><path fill="#060405" d="M492.2,176.3l0.2-1c0.7,0.2,1.5,0,2.1-0.4c0.6-0.4,1.1-1,1.2-1.8l1,0.2c-0.2,1-0.8,1.8-1.7,2.4        C494.2,176.4,493.1,176.6,492.2,176.3z"/></g><g><path fill="#fff" d="M547.8,243l-17.4,47.6c-1.2,3.2-4.4,5.1-7.7,4.5l-70.1-12.4c-4.1-0.4-6,0.3-9.1,2.3         c-3.1,2.1-6.4-0.2-6.4-0.2s-4.6,4.3-6.7,5.3c-2.1,1-4.7,0-4.7,0s13.6-14.4,16.3-16.3c4.2-3,10.1-3.9,10.1-3.9l57.6-2.7         l14.5-33.9L547.8,243z"/><path fill="#060405" d="M523.9,295.7c-0.4,0-0.9,0-1.3-0.1l-70.1-12.4c-4-0.4-5.7,0.2-8.8,2.2c-2.8,1.8-5.6,0.5-6.6,0         c-1.1,1-4.7,4.2-6.5,5.1c-2.2,1-4.9,0.1-5,0l-0.7-0.3l0.5-0.5c0.6-0.6,13.6-14.5,16.3-16.4c4.3-3,10.1-4,10.3-4l57.3-2.7         l14.6-34.1l24.5,10.2l-17.5,48.1C529.8,293.8,527,295.7,523.9,295.7z M450.6,282.2c0.6,0,1.3,0,2,0.1l70.2,12.4         c3.1,0.5,6.1-1.2,7.2-4.1l17.2-47.2l-22.7-9.4L510,267.6l-57.9,2.7c0,0-5.8,0.9-9.9,3.8c-2.3,1.6-13,12.9-15.6,15.6         c0.9,0.2,2.3,0.4,3.5-0.2c2-0.9,6.5-5.1,6.6-5.2l0.3-0.3l0.3,0.2c0.1,0.1,3,2.1,5.8,0.2C445.8,283,447.6,282.2,450.6,282.2z"/></g><g><path fill="#fd6035" d="M542.3,213.7c0,0,5.2,7.5,6.2,10.3c2.9,8.4,0.4,34.6,0.4,34.6l-36-5.9l6.4-16.1"/></g><g><polygon fill="#060405" points="548.8 259.1 512.2 253.1 517.1 241.8 518 242.1 513.6 252.3 549 258.2"/></g><g><path fill="#fff" d="M416.2,288.3c-93.8,0-88.4,0.1-89.5-0.1c-2.4-0.4-4.5-2.1-5.4-4.5l-14.8-42.5c-1.8-4.7,1.7-9.7,6.7-9.7         H391c3,0,5.6,1.8,6.7,4.6L416.2,288.3z"/><path fill="#fece16" d="M324.5,282.1c0.8,2,1.5,4,2.2,6.1c-2.4-0.4-4.5-2.1-5.4-4.5l-14.8-42.5c-1.8-4.7,1.7-9.7,6.7-9.7h22.9         c-5.3,1.8-9.7,4.3-12.9,9.1c-3.9,6-5,13.6-4.3,20.8C319.6,268.4,322,275.3,324.5,282.1z"/><path fill="#060405" d="M416.9,288.8c-94.2,0-89.1,0.1-90.3-0.1c-2.6-0.5-4.8-2.3-5.8-4.8L306,241.3c-1.9-5,1.8-10.4,7.2-10.4         H391c3.2,0,6.1,2,7.2,4.9L416.9,288.8z M313.2,231.9c-4.7,0-7.9,4.7-6.2,9l14.8,42.5c0.8,2.1,2.8,3.8,5,4.2         c1.1,0.2-4.1,0.1,88.7,0.1l-18.3-51.6c-1-2.6-3.5-4.3-6.2-4.3H313.2z"/><path fill="#fff" d="M385,235.4c2.7,0,5,1.6,6,4.1l14,39.5"/><path fill="#060405" d="M404.5,279.2l-14-39.5c-0.9-2.3-3.1-3.8-5.5-3.8v-1c2.9,0,5.4,1.8,6.5,4.5l14,39.5L404.5,279.2z"/><path fill="#060405" d="M456.5,292.1v1.4c0,1.5-1.2,2.6-2.6,2.6H331.3c-2.2,0-3.9-1.8-3.9-3.9c0-2.2,1.8-3.9,3.9-3.9h121.4          C454.8,288.3,456.5,290,456.5,292.1z"/><path fill="#060405" d="M453.8,296.6H331.3c-2.4,0-4.4-2-4.4-4.4c0-2.4,2-4.4,4.4-4.4h121.4c2.4,0,4.3,1.9,4.3,4.3v1.4          C457,295.2,455.6,296.6,453.8,296.6z M331.3,288.8c-1.9,0-3.4,1.5-3.4,3.4c0,1.9,1.5,3.4,3.4,3.4h122.5c1.2,0,2.1-1,2.1-2.1          v-1.4c0-1.8-1.5-3.3-3.3-3.3H331.3z"/><g><ellipse cx="355.9" cy="262.7" fill="#fece16" rx="4.4" ry="6.6" transform="rotate(-30.952 355.9 262.666)"/></g></g></g><g><path fill="#060405" d="M386.8,159c7.6,2.4,15.6,1.2,21.9-2.8l-3.9-5.3c0.1-0.1,2-1.5,1.9-1.4l3.9,5.3c4-3.1,7.2-7.4,8.9-12.6       c4.4-13.6-3.2-28.2-16.8-32.6c-13.6-4.4-28.2,3.2-32.6,16.8C365.7,140.1,373.2,154.7,386.8,159z"/></g><g><polygon fill="#060405" points="421.2 166 419.7 167.1 406.1 148.9 407.6 147.8"/></g><g><path fill="#fff" d="M386.4,129.7l-8.5,3.8c-0.6,0.3-1.1,0.9-1.1,1.6v0.2c0,0.7,0.4,1.3,1.1,1.6l8.5,3.8l0,0        c1.7,0.6,2.7-1.8,1-2.5l-6.7-3l6.7-3C389.1,131.5,388.1,129,386.4,129.7z"/><path fill="#fff" d="M396.3,125.6l-5.7,16.6c-0.6,1.8,2,2.6,2.6,0.9l5.7-16.6C399.5,124.7,396.9,123.9,396.3,125.6z"/><path fill="#fff" d="M411.6,133.5l-8.5-3.8c-1.7-0.7-2.7,1.8-1,2.5l6.7,3l-6.7,3c-0.3,0.1-0.5,0.3-0.6,0.5        c-0.8,1.1,0.4,2.6,1.6,2l8.5-3.8c0.6-0.3,1.1-0.9,1.1-1.6v-0.2C412.7,134.4,412.3,133.8,411.6,133.5z"/></g></g></svg>